# xmcd
#
# Track frame offsets:
# 150
# 25132
# 40117
# 56335
# 75152
# 96540
# 115015
# 124435
# 141927
# 157575
#
# Disc length: 2340 seconds
#
#
# Revision: 0
# Processed by: cddbd v1.5.2PL0 Copyright (c) Steve Scherf et al.
# Submitted via: Nero 7, 11, 10, 0 
#
DISCID=7409220a
DTITLE=Bill Carter - City Of The Violet Crown
DYEAR=1994
DGENRE=Blues
TTITLE0=Jacksboro Highway
TTITLE1=Drownin' On The Corner
TTITLE2=Why Get Up
TTITLE3=Love Letter
TTITLE4=Jacob
TTITLE5=Devil and The Deep Blue Sea
TTITLE6=Cool Daddy Cool
TTITLE7=My My Mercury
TTITLE8=Lyin' 'Bout The Truth
TTITLE9=Fidel's Taxi
EXTD=
EXTT0=Jacksboro Highway
EXTT1=Drownin' On The Corner
EXTT2=Why Get Up
EXTT3=Love Letter
EXTT4=Jacob
EXTT5=Devil and The Deep Blue Sea
EXTT6=Cool Daddy Cool
EXTT7=My My Mercury
EXTT8=Lyin' 'Bout The Truth
EXTT9=Fidel's Taxi
PLAYORDER=
